<svg width="68" height="68" viewBox="0 0 68 68" fill="none" xmlns="http://www.w3.org/2000/svg">
<circle cx="25" cy="25" r="25" fill="#FFC700"/>
<path d="M60.0312 53.6562H47.2812V56.8438H60.0312V53.6562Z" fill="#282828"/>
<path d="M60.0312 47.2812H47.2812V50.4688H60.0312V47.2812Z" fill="#282828"/>
<path d="M60.0312 40.9062H47.2812V44.0938H60.0312V40.9062Z" fill="#282828"/>
<path d="M64.8125 28.1562H45.6875V31.3438H63.2188V60.0312H21.7812V31.3438H39.3125V28.1562H20.1875C19.3072 28.1562 18.5938 28.8702 18.5938 29.75V61.625C18.5938 62.5047 19.3072 63.2188 20.1875 63.2188H64.8125C65.6928 63.2188 66.4062 62.5047 66.4062 61.625V29.75C66.4062 28.8702 65.6928 28.1562 64.8125 28.1562Z" fill="#282828"/>
<path d="M37.7188 32.4062V21.7812H47.2812V32.4062C47.2812 33.2865 46.5678 34 45.6875 34H39.3125C38.4322 34 37.7188 33.2865 37.7188 32.4062ZM40.9062 30.8125H44.0938V24.9688H40.9062V30.8125Z" fill="#282828"/>
<path d="M44.0938 49.4062C44.0938 46.8132 42.5351 44.5809 40.3075 43.5859C40.6879 42.7699 40.9062 41.8641 40.9062 40.9062C40.9062 37.391 38.0465 34.5312 34.5312 34.5312C31.016 34.5312 28.1562 37.391 28.1562 40.9062C28.1562 41.8641 28.3746 42.7699 28.755 43.5859C26.5274 44.5809 24.9688 46.8132 24.9688 49.4062V56.8438H44.0938V49.4062ZM34.5312 37.7188C36.2892 37.7188 37.7188 39.1483 37.7188 40.9062C37.7188 42.6642 36.2892 44.0938 34.5312 44.0938C32.7733 44.0938 31.3438 42.6642 31.3438 40.9062C31.3438 39.1483 32.7733 37.7188 34.5312 37.7188ZM40.9062 53.6562H28.1562V49.4062C28.1562 47.7514 29.4243 46.3866 31.0404 46.2342C32.0439 46.894 33.2424 47.2812 34.5312 47.2812C35.8201 47.2812 37.0186 46.894 38.0216 46.2342C39.6382 46.3866 40.9062 47.7514 40.9062 49.4062V53.6562Z" fill="#282828"/>
</svg>
